<svg xmlns="http://www.w3.org/2000/svg" viewBox="-40 -40 380 380" width="380" height="380"><g fill="#A3D06C"><rect x="0" y="0" width="300" height="20"/><rect x="0" y="0" width="20" height="300"/><rect x="280" y="0" width="20" height="300"/><rect x="0" y="280" width="160" height="20"/><rect x="180" y="280" width="120" height="20"/><rect x="140" y="20" width="20" height="20"/><rect x="40" y="40" width="120" height="20"/><rect x="220" y="40" width="40" height="20"/><rect x="40" y="40" width="20" height="220"/><rect x="240" y="40" width="20" height="220"/><rect x="40" y="240" width="220" height="20"/><rect x="140" y="260" width="20" height="20"/><rect x="20" y="140" width="20" height="20"/><rect x="110" y="85" width="80" height="130" rx="18" fill="none" stroke="#A3D06C" stroke-width="20"/><rect x="140" y="185" width="20" height="10"/></g></svg>